<svg width="100%" height="100%" viewBox="0 0 680 680" version="1.1"
    xmlns="http://www.w3.org/2000/svg" xmlns:xlink="http://www.w3.org/1999/xlink"
    xml:space="preserve" xmlns:serif="http://www.serif.com/"
    style="fill-rule:evenodd;clip-rule:evenodd;stroke-linejoin:round;stroke-miterlimit:2;">
    <rect id="intra_achievement_blue" x="-2.152" y="0.87" width="684.441" height="684.441" style="fill:none;"/>
    <clipPath id="_clip1">
        <rect x="-2.152" y="0.87" width="684.441" height="684.441"/>
    </clipPath>
    <g clip-path="url(#_clip1)">
        <g class="borders">
            <path d="M673.04,561.371c-0,64.744 -51.796,114.69 -114.69,114.69l-436.562,0c-64.745,0 -114.69,-49.946 -114.69,-114.69l-0,-436.562c-0,-64.744 51.795,-114.69 114.69,-114.69l436.562,-0c64.744,-0 114.69,51.795 114.69,114.69l-0,436.562Z" style="fill:#60c0c4;fill-rule:nonzero;"/>
            <path d="M558.35,685.31l-436.562,0c-70.294,0 -123.94,-53.645 -123.94,-123.939l0,-436.562c0,-70.294 53.646,-123.939 123.94,-123.939l436.562,-0c70.294,-0 123.939,53.645 123.939,123.939l0,436.562c0,70.294 -53.645,123.939 -123.939,123.939Zm-436.562,-665.942c-59.195,0 -105.441,46.246 -105.441,105.441l-0,436.562c-0,59.195 46.246,105.441 105.441,105.441l436.562,-0c59.195,-0 105.441,-46.246 105.441,-105.441l-0,-436.562c-0,-59.195 -46.246,-105.441 -105.441,-105.441l-436.562,0Z" style="fill:#24b4b7;fill-rule:nonzero;"/>
        </g>
        <g id="D">
            <path class="left" d="M229.667,343.53c16.05,2.935 27.567,9.393 34.552,19.373c6.985,9.979 10.477,24.362 10.477,43.147l0.229,27.818c-0,12.328 1.783,21.28 5.35,26.857c3.566,5.577 10.105,8.365 19.616,8.365l41.463,0l-0.229,64.2l-46.366,0c-26.75,0 -45.252,-5.724 -55.507,-17.171c-10.254,-11.447 -15.381,-28.031 -15.381,-49.751l0,-54.814c0,-12.328 -1.932,-21.647 -5.796,-27.958c-3.863,-6.31 -10.402,-9.466 -19.616,-9.466l-24.075,0l-0,-61.2l24.075,0c9.214,0 15.753,-3.155 19.616,-9.466c3.864,-6.31 5.796,-15.483 5.796,-27.517l0,-56.135c0,-21.72 5.127,-38.304 15.381,-49.751c10.255,-11.447 28.757,-17.171 55.507,-17.171l46.366,0l0.083,64.396l-41.462,0c-9.512,0 -16.05,2.715 -19.617,8.145c-3.567,5.43 -5.35,14.456 -5.35,27.077l-0.083,27.622c0,18.785 -3.492,33.168 -10.477,43.148c-6.985,9.979 -18.502,16.73 -34.552,20.252Z" style="fill-rule:nonzero;"/>
            <path class="right" d="M368.639,153.848c20.645,1.628 31.982,5.085 41.415,8.448c20.2,7.2 37.3,18.5 51.3,33.9c14,15.4 24.9,35 32.7,58.8c7.8,23.8 11.7,52.5 11.7,86.1c-0,34.4 -4.3,63.7 -12.9,87.9c-8.6,24.2 -20.5,43.9 -35.7,59.1c-15.2,15.2 -33.3,26.3 -54.3,33.3c-10.844,3.614 -22.248,6.296 -34.215,8.044l0,-65.19c5.439,-1.537 10.444,-3.588 15.015,-6.154c11.4,-6.4 20.6,-15.2 27.6,-26.4c7,-11.2 12,-24.5 15,-39.9c3,-15.4 4.5,-32.3 4.5,-50.7c-0,-16 -1.2,-31.6 -3.6,-46.8c-2.4,-15.2 -6.6,-28.6 -12.6,-40.2c-6,-11.6 -14.2,-20.9 -24.6,-27.9c-4.098,-2.759 -7.913,-5.745 -21.315,-7.399l0,-64.949Z" style="fill-rule:nonzero;"/>
        </g>
    </g>
</svg>